<svg width="36" height="36" viewBox="0 0 36 36" fill="none" xmlns="http://www.w3.org/2000/svg">
<path d="M28.5 16.5L11.745 16.5L19.065 9.18C19.65 8.595 19.65 7.635 19.065 7.05C18.48 6.465 17.535 6.465 16.95 7.05L7.065 16.935C6.92594 17.0738 6.81562 17.2386 6.74035 17.4201C6.66508 17.6015 6.62634 17.796 6.62634 17.9925C6.62634 18.189 6.66508 18.3835 6.74035 18.5649C6.81562 18.7464 6.92594 18.9112 7.065 19.05L16.935 28.95C17.0739 29.0889 17.2387 29.199 17.4202 29.2742C17.6016 29.3493 17.7961 29.388 17.9925 29.388C18.1889 29.388 18.3834 29.3493 18.5648 29.2742C18.7463 29.199 18.9111 29.0889 19.05 28.95C19.1889 28.8111 19.299 28.6463 19.3742 28.4648C19.4493 28.2834 19.488 28.0889 19.488 27.8925C19.488 27.6961 19.4493 27.5016 19.3742 27.3202C19.299 27.1387 19.1889 26.9739 19.05 26.835L11.745 19.5L28.5 19.5C29.325 19.5 30 18.825 30 18C30 17.175 29.325 16.5 28.5 16.5Z" fill="#22223B"/>
</svg>
