<svg width="29" height="30" viewBox="0 0 29 30" fill="none" xmlns="http://www.w3.org/2000/svg">
<path d="M24.7592 4.25305C22.7313 2.22519 20.1476 0.844199 17.3349 0.284713C14.5222 -0.274772 11.6067 0.0123762 8.9572 1.10985C6.30767 2.20732 4.04308 4.06582 2.4498 6.45033C0.85652 8.83484 0.00611015 11.6383 0.00610998 14.5061C0.0061098 17.3739 0.85652 20.1774 2.4498 22.5619C4.04308 24.9464 6.30767 26.8049 8.9572 27.9023C11.6067 28.9998 14.5222 29.287 17.3349 28.7275C20.1476 28.168 22.7313 26.787 24.7592 24.7591C27.4716 22.0363 28.9946 18.3495 28.9946 14.5061C28.9946 10.6627 27.4716 6.97594 24.7592 4.25305ZM14.5061 21.1509C14.2096 21.1459 13.9266 21.0259 13.7169 20.8162C13.5072 20.6065 13.3872 20.3235 13.3822 20.027L13.3921 11.6767L10.5626 14.5061C10.3535 14.7153 10.0697 14.8328 9.77393 14.8328C9.47811 14.8328 9.19441 14.7153 8.98524 14.5061C8.77606 14.2969 8.65855 14.0132 8.65855 13.7174C8.65855 13.4216 8.77606 13.1379 8.98524 12.9287L13.7174 8.19653C13.8225 8.09231 13.9463 8.00872 14.0822 7.95006C14.3544 7.8414 14.6579 7.8414 14.93 7.95006C15.0659 8.00872 15.1897 8.09231 15.2948 8.19653L20.027 12.9287C20.2362 13.1379 20.3537 13.4216 20.3537 13.7174C20.3537 14.0132 20.2362 14.2969 20.027 14.5061C19.8178 14.7153 19.5341 14.8328 19.2383 14.8328C18.9425 14.8328 18.6588 14.7153 18.4496 14.5061L15.6201 11.6767L15.63 20.027C15.6286 20.3246 15.5097 20.6096 15.2992 20.8201C15.0888 21.0306 14.8037 21.1494 14.5061 21.1509Z" fill="#84EFBA"/>
</svg>
