<svg width="30" height="30" viewBox="0 0 30 30" fill="none" xmlns="http://www.w3.org/2000/svg">
<path d="M4.25305 24.7592C6.28091 26.787 8.86457 28.168 11.6773 28.7275C14.49 29.287 17.4055 28.9998 20.055 27.9024C22.7045 26.8049 24.9691 24.9464 26.5624 22.5619C28.1557 20.1774 29.0061 17.3739 29.0061 14.5061C29.0061 11.6383 28.1557 8.83485 26.5624 6.45034C24.9691 4.06583 22.7045 2.20733 20.055 1.10986C17.4055 0.0123897 14.49 -0.274758 11.6773 0.284728C8.86456 0.844214 6.28091 2.2252 4.25305 4.25306C1.54059 6.97595 0.0176143 10.6627 0.0176144 14.5061C0.0176145 18.3495 1.54059 22.0363 4.25305 24.7592ZM14.5061 7.86135C14.8026 7.86633 15.0856 7.98634 15.2953 8.19604C15.505 8.40574 15.625 8.68872 15.63 8.98524L15.6201 17.3356L18.4496 14.5061C18.6588 14.2969 18.9425 14.1794 19.2383 14.1794C19.5341 14.1794 19.8178 14.2969 20.027 14.5061C20.2361 14.7153 20.3537 14.999 20.3537 15.2948C20.3537 15.5906 20.2361 15.8743 20.027 16.0835L15.2948 20.8157C15.1897 20.9199 15.0659 21.0035 14.93 21.0621C14.6579 21.1708 14.3543 21.1708 14.0822 21.0621C13.9463 21.0035 13.8225 20.9199 13.7174 20.8157L8.98523 16.0835C8.77605 15.8743 8.65854 15.5906 8.65854 15.2948C8.65854 14.999 8.77605 14.7153 8.98523 14.5061C9.1944 14.2969 9.4781 14.1794 9.77392 14.1794C10.0697 14.1794 10.3534 14.2969 10.5626 14.5061L13.3921 17.3356L13.3822 8.98524C13.3836 8.6876 13.5025 8.40257 13.713 8.19211C13.9234 7.98165 14.2085 7.86278 14.5061 7.86135Z" fill="#F59090"/>
</svg>
